<svg xmlns="http://www.w3.org/2000/svg" viewBox="0 0 800 600">
  <!-- Background color -->
  <rect width="800" height="600" fill="#005843"/>
  
  <!-- Topographic contour lines -->
  <g fill="none" stroke="#006e53" stroke-width="1" opacity="0.3">
    <!-- First set of contours -->
    <path d="M0,100 C150,80 250,150 400,100 S600,130 800,90"/>
    <path d="M0,110 C150,90 250,160 400,110 S600,140 800,100"/>
    <path d="M0,120 C150,100 250,170 400,120 S600,150 800,110"/>
    <path d="M0,130 C150,110 250,180 400,130 S600,160 800,120"/>
    <path d="M0,140 C150,120 250,190 400,140 S600,170 800,130"/>
    
    <!-- Second set of contours -->
    <path d="M0,200 C100,220 300,180 500,230 S700,190 800,220"/>
    <path d="M0,210 C100,230 300,190 500,240 S700,200 800,230"/>
    <path d="M0,220 C100,240 300,200 500,250 S700,210 800,240"/>
    <path d="M0,230 C100,250 300,210 500,260 S700,220 800,250"/>
    <path d="M0,240 C100,260 300,220 500,270 S700,230 800,260"/>
    
    <!-- Third set of contours -->
    <path d="M50,300 C150,320 250,290 350,330 S600,280 750,320"/>
    <path d="M50,310 C150,330 250,300 350,340 S600,290 750,330"/>
    <path d="M50,320 C150,340 250,310 350,350 S600,300 750,340"/>
    <path d="M50,330 C150,350 250,320 350,360 S600,310 750,350"/>
    <path d="M50,340 C150,360 250,330 350,370 S600,320 750,360"/>
    
    <!-- Fourth set of contours -->
    <ellipse cx="200" cy="450" rx="80" ry="60"/>
    <ellipse cx="200" cy="450" rx="70" ry="50"/>
    <ellipse cx="200" cy="450" rx="60" ry="40"/>
    <ellipse cx="200" cy="450" rx="50" ry="30"/>
    
    <!-- Fifth set of contours -->
    <ellipse cx="600" cy="500" rx="100" ry="80"/>
    <ellipse cx="600" cy="500" rx="90" ry="70"/>
    <ellipse cx="600" cy="500" rx="80" ry="60"/>
    <ellipse cx="600" cy="500" rx="70" ry="50"/>
    <ellipse cx="600" cy="500" rx="60" ry="40"/>
    
    <!-- Additional free-form contours -->
    <path d="M0,500 C100,520 150,480 250,510 S350,490 400,520 S500,490 600,520 S700,490 800,510"/>
    <path d="M0,510 C100,530 150,490 250,520 S350,500 400,530 S500,500 600,530 S700,500 800,520"/>
    <path d="M0,520 C100,540 150,500 250,530 S350,510 400,540 S500,510 600,540 S700,510 800,530"/>
    
    <!-- NEW: Additional abstract flowing lines -->
    <path d="M0,30 C50,60 100,0 150,40 S250,10 300,50 S400,20 500,60 S600,30 700,70 S750,20 800,40"/>
    <path d="M0,50 C80,20 160,70 240,30 S320,80 400,40 S480,90 560,50 S640,100 720,60 S760,30 800,70"/>
    
    <!-- NEW: More irregular contours -->
    <path d="M100,150 C160,180 220,130 280,170 S340,140 400,190 S460,150 520,200 S580,160 640,210 S700,170 760,220"/>
    <path d="M50,165 C110,195 170,145 230,185 S290,155 350,205 S410,165 470,215 S530,175 590,225 S650,185 710,235"/>
    
    <!-- NEW: Swirls and eddies -->
    <path d="M150,380 C170,400 200,380 180,420 S150,440 120,420 S100,390 130,370 S160,350 150,380"/>
    <path d="M650,200 C670,220 700,200 680,240 S650,260 620,240 S600,210 630,190 S660,170 650,200"/>
    <path d="M400,450 C420,470 450,450 430,490 S400,510 370,490 S350,460 380,440 S410,420 400,450"/>
    
    <!-- NEW: Complex ridge formations -->
    <path d="M50,550 C100,530 130,560 180,540 S230,570 280,550 S330,580 380,560 S430,590 480,570 S530,600 580,580"/>
    <path d="M30,560 C80,540 110,570 160,550 S210,580 260,560 S310,590 360,570 S410,600 460,580 S510,610 560,590"/>
    <path d="M10,570 C60,550 90,580 140,560 S190,590 240,570 S290,600 340,580 S390,610 440,590 S490,620 540,600"/>
    
    <!-- NEW: Abstract wave-like patterns in upper area -->
    <path d="M0,10 C50,20 100,0 150,15 S200,5 250,25 S300,10 350,30 S400,15 450,35 S500,20 550,40 S600,25 650,45 S700,30 750,50 S800,35 850,55"/>
    <path d="M0,20 C50,30 100,10 150,25 S200,15 250,35 S300,20 350,40 S400,25 450,45 S500,30 550,50 S600,35 650,55 S700,40 750,60 S800,45 850,65"/>
    
    <!-- NEW: Additional circular patterns -->
    <ellipse cx="300" cy="300" rx="60" ry="40"/>
    <ellipse cx="300" cy="300" rx="50" ry="30"/>
    <ellipse cx="300" cy="300" rx="40" ry="20"/>
    
    <ellipse cx="500" cy="150" rx="70" ry="50"/>
    <ellipse cx="500" cy="150" rx="60" ry="40"/>
    <ellipse cx="500" cy="150" rx="50" ry="30"/>
    <ellipse cx="500" cy="150" rx="40" ry="20"/>
    
    <!-- NEW: Connecting abstract lines -->
    <path d="M100,100 C150,150 200,90 250,140 S300,80 350,130 S400,70 450,120"/>
    <path d="M350,400 C400,450 450,390 500,440 S550,380 600,430 S650,370 700,420"/>
    <path d="M150,250 C200,300 250,240 300,290 S350,230 400,280 S450,220 500,270"/>
  </g>
</svg>
